<svg xmlns="http://www.w3.org/2000/svg" viewBox="0 0 425.264 437.221"><defs><clipPath id="a" clipPathUnits="userSpaceOnUse"><path d="M0 327.916h318.948V0H0Z"/></clipPath></defs><g clip-path="url(#a)" transform="matrix(1.33333 0 0 -1.33333 0 437.221)"><path d="M0 0h9.685c1.721 0 2.999.323 3.834.969.833.645 1.251 1.64 1.251 2.986 0 1.291-.418 2.26-1.251 2.905-.835.646-2.113.969-3.834.969H0Zm0 16.142h8.958c1.345 0 2.394.309 3.148.928.753.618 1.13 1.493 1.13 2.623 0 1.183-.377 2.058-1.13 2.623-.754.565-1.803.847-3.148.847H0ZM-6.215-8.313c-2.26 0-3.982.592-5.165 1.776-1.184 1.183-1.776 2.905-1.776 5.165v25.907c0 2.206.592 3.901 1.776 5.085 1.183 1.183 2.905 1.776 5.165 1.776h16.949c3.766 0 6.779-.417 9.039-1.251 2.26-.835 3.874-2.032 4.843-3.591.968-1.562 1.452-3.391 1.452-5.489 0-2.475-.82-4.547-2.461-6.214-1.642-1.668-3.834-2.718-6.578-3.148v1.211c3.713-.323 6.403-1.359 8.071-3.107 1.667-1.749 2.502-4.024 2.502-6.821 0-3.443-1.372-6.187-4.116-8.232-2.744-2.045-6.78-3.067-12.107-3.067z" style="fill:#000;fill-opacity:1;fill-rule:nonzero;stroke:none" transform="translate(33.24 40.275)"/><path d="M0 0c-1.991 0-3.539.565-4.641 1.695-1.103 1.13-1.654 2.771-1.654 4.923v26.634c0 1.721.228 3.16.686 4.317.456 1.157 1.183 2.045 2.179 2.664.995.618 2.246.928 3.753.928 1.344 0 2.488-.202 3.43-.605a7.794 7.794 0 0 0 2.542-1.776c.753-.78 1.425-1.709 2.018-2.784l9.523-15.335 9.443 15.335a34.2 34.2 0 0 0 1.776 2.421c.645.808 1.465 1.466 2.461 1.978.995.51 2.22.766 3.672.766 2.313 0 3.996-.674 5.045-2.017 1.049-1.346 1.574-3.31 1.574-5.892V6.618c0-2.152-.539-3.793-1.615-4.923S37.556 0 35.511 0c-1.991 0-3.538.565-4.64 1.695-1.104 1.13-1.655 2.771-1.655 4.923v17.191h2.098L22.518 9.686a8.17 8.17 0 0 0-1.695-1.938c-.7-.593-1.723-.888-3.067-.888-1.239 0-2.207.269-2.906.807a7.137 7.137 0 0 0-1.775 2.019L4.197 23.809h2.098V6.618c0-2.152-.538-3.793-1.614-4.923C3.604.565 2.044 0 0 0" style="fill:#000;fill-opacity:1;fill-rule:nonzero;stroke:none" transform="translate(74.127 31.236)"/><path d="M0 0c-4.842 0-9.026.848-12.55 2.542-3.525 1.695-6.228 4.103-8.111 7.224-1.884 3.12-2.825 6.805-2.825 11.056 0 4.089.901 7.68 2.704 10.775 1.802 3.093 4.278 5.514 7.425 7.263 3.148 1.748 6.739 2.623 10.774 2.623 2.959 0 5.65-.471 8.071-1.412 2.422-.942 4.492-2.314 6.215-4.116 1.721-1.803 3.026-3.969 3.914-6.497.888-2.529 1.332-5.354 1.332-8.474 0-1.077-.297-1.87-.888-2.38-.593-.513-1.534-.768-2.825-.768H-11.46v6.78H6.457l-1.291-1.05c0 1.991-.27 3.605-.808 4.843-.538 1.237-1.331 2.179-2.38 2.824-1.05.647-2.355.969-3.915.969-1.668 0-3.107-.39-4.318-1.17-1.21-.781-2.139-1.925-2.784-3.43-.646-1.507-.969-3.39-.969-5.65v-.726c0-3.821.848-6.551 2.543-8.192 1.694-1.641 4.318-2.462 7.869-2.462 1.182 0 2.542.148 4.075.445 1.534.295 2.999.712 4.399 1.251 1.398.537 2.609.631 3.632.282 1.021-.351 1.816-.942 2.381-1.776a5.427 5.427 0 0 0 .927-2.825c.054-1.049-.188-2.071-.726-3.066-.538-.996-1.426-1.763-2.663-2.3A27.52 27.52 0 0 0 6.417.646 32.307 32.307 0 0 0 0 0" style="fill:#000;fill-opacity:1;fill-rule:nonzero;stroke:none" transform="translate(146.134 31.075)"/><path d="M0 0c-4.467 0-8.354.835-11.662 2.502-3.309 1.667-5.879 4.075-7.708 7.224-1.829 3.147-2.744 6.845-2.744 11.096 0 3.229.51 6.12 1.534 8.677 1.021 2.555 2.515 4.721 4.479 6.496 1.963 1.776 4.304 3.134 7.022 4.076 2.716.941 5.742 1.412 9.079 1.412a29.18 29.18 0 0 0 4.923-.443c1.722-.297 3.497-.848 5.327-1.654 1.291-.485 2.191-1.225 2.704-2.22a5.937 5.937 0 0 0 .646-3.188c-.081-1.13-.404-2.153-.969-3.067-.565-.916-1.346-1.533-2.341-1.856-.996-.324-2.112-.19-3.349.403-.861.431-1.763.739-2.704.929-.942.187-1.843.282-2.704.282-1.452 0-2.731-.216-3.833-.646-1.103-.431-2.032-1.063-2.784-1.896-.755-.835-1.332-1.87-1.735-3.107-.405-1.239-.606-2.637-.606-4.198 0-3.121.779-5.568 2.341-7.343 1.56-1.777 3.765-2.665 6.617-2.665.861 0 1.748.094 2.664.284.914.187 1.828.496 2.744.927 1.237.592 2.34.713 3.309.364.969-.351 1.748-.983 2.341-1.897a6.032 6.032 0 0 0 .968-3.026 5.92 5.92 0 0 0-.726-3.149c-.539-.996-1.453-1.734-2.744-2.218C8.313 1.291 6.578.74 4.883.443A28.483 28.483 0 0 0 0 0" style="fill:#000;fill-opacity:1;fill-rule:nonzero;stroke:none" transform="translate(190.815 31.075)"/><path d="M0 0c-2.314 0-4.09.619-5.327 1.856-1.238 1.238-1.857 3.04-1.857 5.408v21.953h-7.424c-3.983 0-5.973 1.883-5.973 5.649 0 1.776.525 3.148 1.574 4.116 1.049.968 2.515 1.453 4.399 1.453h29.215c3.982 0 5.973-1.857 5.973-5.569 0-1.83-.512-3.228-1.533-4.197-1.023-.969-2.502-1.452-4.44-1.452H7.183V7.264c0-2.368-.606-4.17-1.816-5.408C4.156.619 2.367 0 0 0" style="fill:#000;fill-opacity:1;fill-rule:nonzero;stroke:none" transform="translate(228.457 31.236)"/><path d="M0 0c-4.843 0-9.026.848-12.55 2.542-3.524 1.695-6.228 4.103-8.111 7.224-1.884 3.12-2.825 6.805-2.825 11.056 0 4.089.901 7.68 2.704 10.775 1.802 3.093 4.277 5.514 7.425 7.263 3.148 1.748 6.739 2.623 10.774 2.623 2.959 0 5.65-.471 8.071-1.412 2.421-.942 4.492-2.314 6.215-4.116 1.721-1.803 3.026-3.969 3.914-6.497.888-2.529 1.332-5.354 1.332-8.474 0-1.077-.297-1.87-.888-2.38-.593-.513-1.534-.768-2.825-.768H-11.46v6.78H6.457l-1.292-1.05c0 1.991-.269 3.605-.807 4.843-.538 1.237-1.332 2.179-2.38 2.824-1.049.647-2.355.969-3.915.969-1.668 0-3.107-.39-4.318-1.17-1.211-.781-2.139-1.925-2.784-3.43-.646-1.507-.969-3.39-.969-5.65v-.726c0-3.821.848-6.551 2.542-8.192 1.695-1.641 4.319-2.462 7.869-2.462 1.184 0 2.543.148 4.076.445 1.534.295 3 .712 4.399 1.251 1.398.537 2.609.631 3.632.282 1.021-.351 1.816-.942 2.381-1.776a5.427 5.427 0 0 0 .927-2.825c.054-1.049-.188-2.071-.725-3.066-.539-.996-1.427-1.763-2.664-2.3A27.51 27.51 0 0 0 6.416.646 32.29 32.29 0 0 0 0 0" style="fill:#000;fill-opacity:1;fill-rule:nonzero;stroke:none" transform="translate(274.67 31.075)"/><path d="M0 0s-10.023-7.567-24.336-2.048c-17.816 7.04-35.097-16.72-43.444-25.927-1.944-2.144-3.868-3.685-5.818-4.757-18.63-10.236-39.563 22.416-101.455-18.265 36.884-33.105 88.536-31.008 113.178-1.45a58.079 58.079 0 0 1 6.349 9.331c3.329 6.084 13.52 26.003 29.476 24.932C-6.636-17.769.302-4.007 0 0" style="fill:#ffc606;fill-opacity:1;fill-rule:nonzero;stroke:none" transform="translate(248.248 286.912)"/><path d="M0 0c18.069-15.215 40.724-22.993 62.601-21.414 18.388 1.33 34.338 9.048 44.914 21.733a56.026 56.026 0 0 1 6.094 8.957l.388.713c3.937 7.249 14.379 26.475 31.184 25.434 10.453.25 16.489 4.532 19.715 8.087a19.637 19.637 0 0 1 2.339 3.134c-4.69-1.753-12.163-3.093-21.229.403-14.204 5.614-28.817-11.365-37.547-21.508a207.942 207.942 0 0 0-3.329-3.809c-2.071-2.286-4.172-3.998-6.422-5.234-7.097-3.899-14.428-2.267-22.913-.377C59.973 19.641 38.427 24.437 0 0m56.997-26.282c-22.195 0-44.651 8.866-62.427 24.821a2.331 2.331 0 0 0 .277 3.686c41.706 27.413 65.932 22.019 81.962 18.449 8.185-1.823 14.099-3.138 19.651-.088 1.789.983 3.494 2.383 5.213 4.278.966 1.066 2.054 2.33 3.249 3.719 9.543 11.084 25.513 29.632 42.781 22.812 12.933-4.988 21.983 1.672 22.072 1.74a2.34 2.34 0 0 0 2.368.264 2.338 2.338 0 0 0 1.366-1.951c.186-2.478-1.335-6.863-5.157-11.074-3.852-4.245-10.998-9.358-23.17-9.619-.07 0-.138 0-.206.005-13.9.942-23.324-16.453-26.877-22.998l-.396-.725a60.56 60.56 0 0 0-6.604-9.706C99.705-16.336 82.601-24.646 62.938-26.068a82.316 82.316 0 0 0-5.941-.214" style="fill:#fe4500;fill-opacity:1;fill-rule:nonzero;stroke:none" transform="translate(77.067 235.64)"/><path d="M0 0s2.122-5.238-.898-12.254" style="fill:#ffd200;fill-opacity:1;fill-rule:nonzero;stroke:none" transform="translate(231.007 282.558)"/><path d="M0 0a2.334 2.334 0 0 0-2.143 3.256c2.56 5.948.942 10.292.872 10.474a2.343 2.343 0 0 0 1.316 3.019 2.324 2.324 0 0 0 3.016-1.285c.102-.25 2.45-6.231-.916-14.052A2.336 2.336 0 0 0 0 0" style="fill:#f25900;fill-opacity:1;fill-rule:nonzero;stroke:none" transform="translate(230.109 267.97)"/><path d="M0 0c13.647 2.242 27.118-5.346 25.08-22.559C23.379-36.914-7.391-48.932-26.284-3.096c-10.487 25.442-14.878 43.432-14.878 43.432s46.941-8.381 65.614-53.367" style="fill:#ffc606;fill-opacity:1;fill-rule:nonzero;stroke:none" transform="translate(135.441 260.153)"/><path d="M0 0c1.827-6.525 6.224-21.062 13.767-39.361 8.673-21.04 21.53-32.54 34.394-30.779 6.507.894 11.879 5.495 12.495 10.701.366 3.088.196 5.919-.493 8.428a83.413 83.413 0 0 1-2.072 4.587 14.638 14.638 0 0 1-2.063 2.454c-4.153 3.97-10.789 5.657-17.756 4.513a2.329 2.329 0 0 0-2.68 1.924 2.333 2.333 0 0 0 1.924 2.681c5.179.852 10.256.361 14.607-1.306C35.355-11.615 9.517-2.597 0 0m45.648-74.977c-4.553 0-10.537 1.318-17.015 6.234-7.534 5.718-13.987 15.005-19.18 27.604C-.981-15.826-5.49 2.447-5.534 2.629a2.331 2.331 0 0 0 2.677 2.85c.462-.083 44.72-8.437 64.996-49.557 2.296-3.533 4.009-8.672 3.152-15.91-.873-7.368-7.81-13.581-16.495-14.775a23.189 23.189 0 0 0-3.148-.214" style="fill:#fe4500;fill-opacity:1;fill-rule:nonzero;stroke:none" transform="translate(97.547 297.307)"/><path d="M0 0s-3.502-12.061-18.272-16.204c-18.486-5.021-18.113-34.399-19.291-46.771-.274-2.881-.894-5.267-1.815-7.292-8.8-19.35-45.11-5.717-70.352-75.347 49.361-4.451 89.489 28.14 91.543 66.567a58 58 0 0 1-.497 11.275c-.975 6.867-4.729 28.924 8.696 37.614C5.317-18.207 2.64-3.03 0 0" style="fill:#1ac2ff;fill-opacity:1;fill-rule:nonzero;stroke:none" transform="translate(263.827 261.122)"/><path d="M0 0c23.583-1.372 46.383 5.941 62.968 20.305 13.936 12.069 22.096 27.798 22.978 44.29.193 3.6.032 7.241-.477 10.822l-.115.805c-1.184 8.163-4.324 29.818 9.762 39.038 8.225 6.454 10.498 13.496 10.956 18.274a19.75 19.75 0 0 1 0 3.913c-2.711-4.212-7.896-9.757-17.251-12.38-14.735-4.003-16.284-26.348-17.21-39.698-.13-1.874-.248-3.579-.387-5.048-.293-3.072-.952-5.7-2.014-8.036-3.353-7.37-10.201-10.449-18.132-14.014C36.293 51.625 16.161 42.574 0 0m5.621-4.831c-3.017 0-6.053.136-9.097.41A2.334 2.334 0 0 0-5.46-1.302c17.009 46.922 39.646 57.097 54.625 63.83 7.648 3.437 13.174 5.921 15.797 11.688.845 1.857 1.373 3.999 1.615 6.548.137 1.433.252 3.097.379 4.927 1.011 14.589 2.704 39.007 20.624 43.874 13.348 3.745 16.611 14.495 16.643 14.603a2.334 2.334 0 0 0 4.001.882c1.632-1.874 3.037-6.3 2.494-11.962-.547-5.704-3.213-14.076-12.808-21.567a2.038 2.038 0 0 0-.168-.12c-11.679-7.56-8.839-27.138-7.77-34.509l.118-.818a60.65 60.65 0 0 0 .516-11.728c-.95-17.769-9.68-34.663-24.584-47.57C49.914 2.826 28.291-4.831 5.621-4.831" style="fill:#00f;fill-opacity:1;fill-rule:nonzero;stroke:none" transform="translate(157.363 117.604)"/><path d="M0 0c-4.712-16.056-24.984-23.537-34.23-5.098-6.48 12.922 10.24 40.559 52.801 15.134C42.196-4.077 56.477-15.866 56.477-15.866s-43.605-21.852-83.435 2.274" style="fill:#1ac2ff;fill-opacity:1;fill-rule:nonzero;stroke:none" transform="translate(239.417 152.763)"/><path d="M0 0c28.249-10.792 56.177-1.668 65.736 2.175-5.358 4.129-17.587 13.155-34.598 23.318-27.607 16.49-40.844 8.74-45.254 4.643-5.608-5.208-6.383-12.506-4.266-16.728 1.686-3.36 3.821-5.881 6.285-7.481.037-.02.075-.041.111-.063.268-.163.54-.325.809-.483 2.165-1.171 4.555-1.665 7.104-1.437 6.917.622 13.331 6.451 15.596 14.173a2.333 2.333 0 1 0 4.479-1.314C13.602 8.625 7.297 2.159 0 0m28.474-9.725C15.34-9.726.586-6.995-13.672 1.435c-3.565 2.016-6.619 5.37-8.882 9.881-3.439 6.86-1.226 16.212 5.262 22.239 5.182 4.813 20.509 14.052 50.822-4.056C57.036 15.457 71.581 3.512 71.726 3.394a2.332 2.332 0 0 0-.441-3.886c-.287-.145-18.851-9.232-42.811-9.233" style="fill:#00f;fill-opacity:1;fill-rule:nonzero;stroke:none" transform="translate(225.655 135.304)"/><path d="M0 0s4.835-2.927 6.614-10.356" style="fill:#36a9e1;fill-opacity:1;fill-rule:nonzero;stroke:none" transform="translate(252.62 247.316)"/><path d="M0 0c-1.055 0-2.011.72-2.268 1.791-1.509 6.304-5.512 8.878-5.552 8.902a2.333 2.333 0 1 0 2.416 3.993c.231-.141 5.691-3.527 7.675-11.809A2.333 2.333 0 0 0 0 0" style="fill:#0400f2;fill-opacity:1;fill-rule:nonzero;stroke:none" transform="translate(259.232 234.626)"/><path d="M0 0s-9.086-8.67-23.939-4.832C-42.446.113-56.881-25.476-64.114-35.583c-1.685-2.353-3.419-4.105-5.233-5.393-17.33-12.311-41.877 17.718-98.682-29.81 40.445-28.644 91.514-20.622 112.594 11.573a58.134 58.134 0 0 1 5.235 9.999c2.606 6.427 10.44 27.385 26.414 28.155C-4.549-18.414.761-3.946 0 0" style="fill:#fd0088;fill-opacity:1;fill-rule:nonzero;stroke:none" transform="translate(189.838 201.741)"/><path d="M0 0c19.699-13.037 43.092-18.162 64.648-14.074C82.76-10.64 97.717-1.139 106.764 12.679a55.81 55.81 0 0 1 5.024 9.597l.305.755c3.077 7.653 11.241 27.953 28.053 28.849 10.352 1.45 15.856 6.396 18.652 10.298a19.769 19.769 0 0 1 1.966 3.384c-4.46-2.28-11.731-4.47-21.136-2.04-14.745 3.944-27.316-14.602-34.823-25.681-1.054-1.554-2.013-2.969-2.871-4.168-1.795-2.508-3.685-4.45-5.778-5.938-6.602-4.688-14.071-3.91-22.718-3.009C57.316 26.409 35.362 28.694 0 0m49.862-20.115c-19.038 0-38.458 6.261-55.089 18.039a2.335 2.335 0 0 0-.148 3.694c38.278 32.027 62.963 29.453 79.297 27.75 8.341-.869 14.366-1.498 19.531 2.172 1.664 1.182 3.197 2.768 4.686 4.849a201.38 201.38 0 0 1 2.802 4.07c8.203 12.107 21.928 32.372 39.873 27.577 13.315-3.442 21.396 3.956 21.734 4.273a2.339 2.339 0 0 0 3.894-1.254c.471-2.441-.538-6.973-3.851-11.596-3.338-4.658-9.849-10.558-21.908-12.216a2.839 2.839 0 0 0-.205-.019c-13.896-.67-21.277-19.024-24.056-25.934l-.309-.768a60.571 60.571 0 0 0-5.445-10.4c-9.747-14.887-25.782-25.108-45.151-28.781a83.96 83.96 0 0 0-15.655-1.456" style="fill:#7a00b6;fill-opacity:1;fill-rule:nonzero;stroke:none" transform="translate(25.687 131.128)"/><path d="M0 0s2.71-4.959.517-12.277" style="fill:#f5007e;fill-opacity:1;fill-rule:nonzero;stroke:none" transform="translate(173.212 195.434)"/><path d="M0 0a2.336 2.336 0 0 0-2.236 3.004c1.859 6.203-.247 10.332-.338 10.505a2.341 2.341 0 0 0 .96 3.149c1.13.604 2.53.194 3.144-.929.13-.237 3.15-5.908.704-14.065A2.334 2.334 0 0 0 0 0" style="fill:#79009e;fill-opacity:1;fill-rule:nonzero;stroke:none" transform="translate(173.73 180.823)"/><path d="M0 0c14.808 9.753 35.993 5.478 35.937-15.647-.039-14.455-29.223-29.931-53.261 13.429-13.343 24.068-19.772 41.434-19.772 41.434s47.593-2.929 71.315-45.47" style="fill:#fd0088;fill-opacity:1;fill-rule:nonzero;stroke:none" transform="translate(73.496 157.542)"/><path d="M0 0c2.565-6.271 8.604-20.206 18.201-37.517 11.034-19.902 25.125-29.858 37.705-26.62 6.361 1.637 11.168 6.824 11.182 12.067.008 3.085-.467 5.837-1.403 8.216a83.348 83.348 0 0 1-2.689 4.492 15.062 15.062 0 0 1-4.267 3.399c-6.667 3.603-16.296 2.632-23.961-2.415a2.332 2.332 0 1 0-2.567 3.897c7.44 4.9 16.242 6.512 23.707 4.587C36.432-7.466 9.748-1.484 0 0m51.208-69.389c-4.126 0-9.197 1.046-14.861 4.395-8.141 4.813-15.62 13.297-22.227 25.215C.845-15.833-5.735 1.8-5.8 1.976a2.331 2.331 0 0 0 2.332 3.139c.469-.03 45.386-3.236 70.255-41.745 3.257-3.944 4.984-9.229 4.968-15.452-.02-7.42-6.196-14.391-14.687-16.574a23.502 23.502 0 0 0-5.86-.733" style="fill:#7a00b6;fill-opacity:1;fill-rule:nonzero;stroke:none" transform="translate(40.012 193.971)"/></g></svg>